<mxfile host="app.diagrams.net" modified="2024-06-10T06:42:57.479Z" agent="Mozilla/5.0 (Windows NT 10.0; Win64; x64) AppleWebKit/537.36 (KHTML, like Gecko) Chrome/125.0.0.0 Safari/537.36" version="24.5.2" etag="dRB4N5PbSPuN-0o0hixl" type="github">
  <diagram name="페이지-1" id="FcY7-OA9FpNYk5h84YlQ">
    <mxGraphModel>
      <root>
        <mxCell id="0" />
        <mxCell id="1" parent="0" />
      </root>
    </mxGraphModel>
  </diagram>
</mxfile>
